<svg xmlns="http://www.w3.org/2000/svg" xmlns:xlink="http://www.w3.org/1999/xlink" id="Layer_1" width="512" height="512" enable-background="new 0 0 512 512" version="1.1" viewBox="0 0 512 512" xml:space="preserve"><path d="M447.5,479.5h-160c-17.672,0-32-14.328-32-32v-160c0-17.672,14.328-32,32-32h160c17.672,0,32,14.328,32,32v160 C479.5,465.172,465.172,479.5,447.5,479.5z M447.5,303.5c0-8.844-7.172-16-16-16h-128c-8.844,0-16,7.156-16,16v128 c0,8.844,7.156,16,16,16h128c8.828,0,16-7.156,16-16V303.5z M447.5,223.5h-160c-17.672,0-32-14.328-32-32v-160 c0-17.672,14.328-32,32-32h160c17.672,0,32,14.328,32,32v160C479.5,209.172,465.172,223.5,447.5,223.5z M447.5,47.5 c0-8.844-7.172-16-16-16h-128c-8.844,0-16,7.156-16,16v128c0,8.844,7.156,16,16,16h128c8.828,0,16-7.156,16-16V47.5z M191.5,479.5 h-160c-17.672,0-32-14.328-32-32v-160c0-17.672,14.328-32,32-32h160c17.672,0,32,14.328,32,32v160 C223.5,465.172,209.172,479.5,191.5,479.5z M191.5,303.5c0-8.844-7.172-16-16-16h-128c-8.844,0-16,7.156-16,16v128 c0,8.844,7.156,16,16,16h128c8.828,0,16-7.156,16-16V303.5z M191.5,223.5h-160c-17.672,0-32-14.328-32-32v-160 c0-17.672,14.328-32,32-32h160c17.672,0,32,14.328,32,32v160C223.5,209.172,209.172,223.5,191.5,223.5z M191.5,47.5 c0-8.844-7.172-16-16-16h-128c-8.844,0-16,7.156-16,16v128c0,8.844,7.156,16,16,16h128c8.828,0,16-7.156,16-16V47.5z"/></svg>